<svg width="66" height="45" viewBox="0 0 66 45" fill="none" xmlns="http://www.w3.org/2000/svg">
<g style="mix-blend-mode:screen">
<rect x="1.15948" y="0.879547" width="64.5048" height="43" rx="9" transform="rotate(0.439541 1.15948 0.879547)" fill="#18E73C"/>
</g>
<ellipse cx="32.5" cy="22.5" rx="30.5" ry="21.5" fill="#F7F4FF"/>
<path d="M8.65904 11.6983C15.135 5.8284 60.922 16.0738 55.4685 9.31168C50.015 2.54953 53.1313 23.6647 56.8319 33.1781C60.5324 42.6915 1.84217 29.5981 9.56798 35.9625C17.2938 42.3269 2.18303 17.5683 8.65904 11.6983Z" stroke="#18E73C"/>
<path d="M18.2612 23.2812C18.1928 23.2861 18.0781 23.2886 17.9169 23.2886C17.7753 22.7954 17.5605 22.3926 17.2724 22.0801C16.9892 21.7676 16.6254 21.6113 16.1811 21.6113C15.8735 21.6113 15.6293 21.687 15.4487 21.8384C15.2729 21.9897 15.185 22.2095 15.185 22.4976C15.185 22.6978 15.2582 22.8833 15.4047 23.0542C15.5512 23.2251 15.7294 23.3765 15.9394 23.5083C16.1542 23.6353 16.435 23.7866 16.7817 23.9624C16.8647 24.0015 16.9892 24.0649 17.1552 24.1528C17.7021 24.4458 18.1 24.7461 18.3491 25.0537C18.603 25.3564 18.7299 25.7275 18.7299 26.167C18.7299 26.5723 18.6298 26.9165 18.4296 27.1997C18.2294 27.478 17.9536 27.6904 17.602 27.8369C17.2504 27.9785 16.8476 28.0493 16.3935 28.0493C15.9931 28.0493 15.5878 28.0005 15.1777 27.9028C14.7675 27.8101 14.4306 27.6831 14.1669 27.522V25.7349C14.3574 25.7104 14.4868 25.6982 14.5551 25.6982C14.6674 26.2402 14.8652 26.6821 15.1484 27.0239C15.4365 27.3657 15.8295 27.5366 16.3276 27.5366C16.684 27.5366 16.9794 27.4487 17.2138 27.2729C17.4531 27.0923 17.5727 26.8555 17.5727 26.5625C17.5727 26.377 17.519 26.2134 17.4116 26.0718C17.3041 25.9302 17.165 25.8057 16.9941 25.6982C16.8232 25.5908 16.5668 25.4468 16.225 25.2661C15.7661 25.022 15.4169 24.8242 15.1777 24.6729C14.8066 24.4434 14.5258 24.187 14.3354 23.9038C14.1498 23.6206 14.0571 23.2837 14.0571 22.8931C14.0571 22.5171 14.1523 22.1973 14.3427 21.9336C14.5331 21.665 14.7919 21.4624 15.1191 21.3257C15.4462 21.189 15.8149 21.1206 16.225 21.1206C16.601 21.1206 16.9575 21.167 17.2944 21.2598C17.6362 21.3525 17.9438 21.4844 18.2172 21.6553L18.2612 23.2812ZM24.0693 23.4424C24.0693 23.0762 24.0351 22.7661 23.9667 22.5122C23.9033 22.2583 23.7714 22.0532 23.5712 21.897C23.3759 21.7407 23.0952 21.6626 22.7289 21.6626C22.602 21.6626 22.4457 21.6895 22.2602 21.7432C22.0746 21.7969 21.9111 21.875 21.7695 21.9775C21.6328 22.0752 21.5644 22.1899 21.5644 22.3218C21.5644 22.3755 21.5742 22.4292 21.5937 22.4829C21.6132 22.5317 21.645 22.5952 21.6889 22.6733C21.7328 22.7466 21.7646 22.8101 21.7841 22.8638C21.8036 22.9175 21.8134 22.9736 21.8134 23.0322C21.8134 23.2275 21.7499 23.3911 21.623 23.5229C21.5009 23.6499 21.3422 23.7134 21.1469 23.7134C20.9028 23.7134 20.7075 23.623 20.561 23.4424C20.4194 23.2617 20.3486 23.0444 20.3486 22.7905C20.3486 22.4097 20.4975 22.0947 20.7953 21.8457C21.0932 21.5967 21.4521 21.4136 21.872 21.2964C22.2968 21.1792 22.6923 21.1206 23.0585 21.1206C23.747 21.1206 24.2597 21.2231 24.5966 21.4282C24.9384 21.6284 25.163 21.9238 25.2704 22.3145C25.3828 22.7002 25.4389 23.2422 25.4389 23.9404L25.4243 24.3066C25.4194 24.4141 25.412 24.5923 25.4023 24.8413C25.3974 25.0903 25.395 25.3198 25.395 25.5298C25.395 26.6284 25.5097 27.1777 25.7392 27.1777C25.9052 27.1777 26.1201 27.0093 26.3837 26.6724L26.6913 27.002C26.4765 27.3535 26.2641 27.6172 26.0541 27.793C25.8442 27.9639 25.5683 28.0493 25.2265 28.0493C24.9042 28.0493 24.6381 27.9492 24.4282 27.749C24.2231 27.5439 24.1108 27.2803 24.0912 26.958C23.7787 27.2998 23.4272 27.5684 23.0366 27.7637C22.6508 27.9541 22.2407 28.0493 21.8061 28.0493C21.5034 28.0493 21.2226 27.9956 20.9638 27.8882C20.7099 27.7759 20.5048 27.6099 20.3486 27.3901C20.1972 27.1704 20.1215 26.9067 20.1215 26.5991C20.1215 26.1353 20.2997 25.7495 20.6562 25.4419C21.0126 25.1343 21.4228 24.8999 21.8867 24.7388C22.3505 24.5776 22.9169 24.4165 23.5859 24.2554C23.6445 24.2456 23.8056 24.2065 24.0693 24.1382V23.4424ZM24.0693 24.5703C23.996 24.5947 23.9033 24.624 23.791 24.6582C23.371 24.7949 23.0121 24.9268 22.7143 25.0537C22.4164 25.1758 22.1503 25.3418 21.916 25.5518C21.6816 25.7617 21.5644 26.0083 21.5644 26.2915C21.5644 26.5796 21.6425 26.8066 21.7988 26.9727C21.9599 27.1387 22.1845 27.2217 22.4726 27.2217C22.7607 27.2217 23.039 27.1509 23.3076 27.0093C23.5761 26.8628 23.83 26.6724 24.0693 26.438V24.5703ZM29.7529 26.189C29.7529 26.5991 29.8359 26.9165 30.0019 27.1411C30.1728 27.3608 30.4536 27.4927 30.8442 27.5366C30.8442 27.6099 30.8417 27.6831 30.8369 27.7563C30.832 27.8296 30.8295 27.8784 30.8295 27.9028H27.226L27.2187 27.5366C27.2626 27.5073 27.3188 27.4805 27.3871 27.4561C27.4604 27.4316 27.5336 27.4097 27.6069 27.3901C27.8217 27.3315 27.9902 27.2681 28.1122 27.1997C28.2343 27.1265 28.3076 27.019 28.332 26.8774C28.371 26.6675 28.3906 26.4526 28.3906 26.2329L28.3832 19.3408C28.3246 19.2432 28.205 19.1479 28.0244 19.0552C27.8486 18.9575 27.6752 18.877 27.5043 18.8135C27.3334 18.7451 27.2236 18.7036 27.1747 18.689L27.1894 18.4326L29.2255 17.876L29.7529 17.8247V26.189ZM34.0961 26.1816C34.0961 26.5527 34.1547 26.8311 34.2719 27.0166C34.3891 27.1973 34.5234 27.3145 34.6747 27.3682C34.8261 27.4219 35.0629 27.478 35.3852 27.5366C35.3852 27.6099 35.3828 27.6831 35.3779 27.7563C35.373 27.8296 35.3705 27.8784 35.3705 27.9028H31.5912V27.5146C31.601 27.5098 31.6694 27.4902 31.7963 27.4561C32.0405 27.3975 32.2407 27.3291 32.3969 27.251C32.5532 27.168 32.6484 27.0435 32.6826 26.8774C32.707 26.7944 32.7216 26.7114 32.7265 26.6284C32.7314 26.5405 32.7338 26.4233 32.7338 26.2769V22.5854C32.6752 22.4683 32.558 22.3657 32.3823 22.2778C32.2114 22.1851 32.0331 22.1094 31.8476 22.0508C31.662 21.9873 31.5693 21.958 31.5693 21.9629L31.5912 21.7139L33.6054 21.2158L34.0375 21.1865L34.1181 22.3804C34.4062 22.0044 34.7455 21.7017 35.1362 21.4722C35.5268 21.2378 35.9638 21.1206 36.4472 21.1206C36.9257 21.1206 37.3212 21.2183 37.6337 21.4136C37.9462 21.6089 38.1855 21.9043 38.3515 22.2998C38.5859 22.041 38.808 21.8311 39.018 21.6699C39.228 21.5039 39.4623 21.3745 39.7211 21.2817C39.9799 21.1841 40.2729 21.1353 40.6 21.1353C41.2397 21.1353 41.7524 21.2866 42.1381 21.5894C42.5287 21.8872 42.7509 22.3413 42.8046 22.9517C42.8437 23.4106 42.8632 23.8721 42.8632 24.3359V26.2549C42.8632 26.499 42.8803 26.7065 42.9145 26.8774C42.9389 27.019 42.9999 27.1313 43.0976 27.2144C43.2001 27.2974 43.3002 27.356 43.3979 27.3901C43.4955 27.4194 43.6664 27.4683 43.9106 27.5366C43.9106 27.6099 43.9081 27.6831 43.9033 27.7563C43.8984 27.8247 43.8959 27.8735 43.8959 27.9028H40.373C40.373 27.8735 40.3705 27.8247 40.3657 27.7563C40.3608 27.6831 40.3583 27.6099 40.3583 27.5366C40.3828 27.5317 40.4096 27.5244 40.4389 27.5146C40.4731 27.5049 40.5073 27.4951 40.5414 27.4854C40.7953 27.417 40.998 27.3438 41.1494 27.2656C41.3007 27.1826 41.3959 27.0581 41.435 26.8921C41.4741 26.6968 41.4936 26.4844 41.4936 26.2549V23.3472C41.4936 22.8882 41.3764 22.5342 41.142 22.2852C40.9077 22.0312 40.5732 21.9043 40.1386 21.9043C39.8359 21.9043 39.5356 21.9946 39.2377 22.1753C38.9399 22.3511 38.6762 22.5659 38.4467 22.8198C38.476 23.1567 38.4907 23.6987 38.4907 24.4458V26.2183C38.4907 26.4966 38.5053 26.7114 38.5346 26.8628C38.5639 27.0386 38.6542 27.168 38.8056 27.251C38.9619 27.334 39.1669 27.4097 39.4208 27.478C39.5576 27.522 39.6235 27.5415 39.6186 27.5366C39.6186 27.6099 39.6161 27.6831 39.6113 27.7563C39.6064 27.8296 39.6039 27.8784 39.6039 27.9028H35.9418C35.9418 27.8735 35.9394 27.8247 35.9345 27.7563C35.9296 27.6831 35.9272 27.6099 35.9272 27.5366C35.9467 27.5317 36.0639 27.5098 36.2787 27.4707C36.4985 27.4268 36.6938 27.2974 36.8647 27.0825C37.0356 26.8628 37.121 26.5771 37.121 26.2256V23.6768C37.121 23.1055 37.0307 22.6685 36.85 22.3657C36.6694 22.063 36.3544 21.9116 35.9052 21.9116C35.5536 21.9116 35.2338 22.0044 34.9457 22.1899C34.6625 22.3706 34.3793 22.6196 34.0961 22.937V26.1816ZM48.7226 23.4424C48.7226 23.0762 48.6884 22.7661 48.6201 22.5122C48.5566 22.2583 48.4247 22.0532 48.2245 21.897C48.0292 21.7407 47.7485 21.6626 47.3823 21.6626C47.2553 21.6626 47.0991 21.6895 46.9135 21.7432C46.728 21.7969 46.5644 21.875 46.4228 21.9775C46.2861 22.0752 46.2177 22.1899 46.2177 22.3218C46.2177 22.3755 46.2275 22.4292 46.247 22.4829C46.2665 22.5317 46.2983 22.5952 46.3422 22.6733C46.3862 22.7466 46.4179 22.8101 46.4374 22.8638C46.457 22.9175 46.4667 22.9736 46.4667 23.0322C46.4667 23.2275 46.4033 23.3911 46.2763 23.5229C46.1542 23.6499 45.9955 23.7134 45.8002 23.7134C45.5561 23.7134 45.3608 23.623 45.2143 23.4424C45.0727 23.2617 45.0019 23.0444 45.0019 22.7905C45.0019 22.4097 45.1508 22.0947 45.4487 21.8457C45.7465 21.5967 46.1054 21.4136 46.5253 21.2964C46.9501 21.1792 47.3456 21.1206 47.7119 21.1206C48.4003 21.1206 48.913 21.2231 49.2499 21.4282C49.5917 21.6284 49.8163 21.9238 49.9238 22.3145C50.0361 22.7002 50.0922 23.2422 50.0922 23.9404L50.0776 24.3066C50.0727 24.4141 50.0654 24.5923 50.0556 24.8413C50.0507 25.0903 50.0483 25.3198 50.0483 25.5298C50.0483 26.6284 50.163 27.1777 50.3925 27.1777C50.5585 27.1777 50.7734 27.0093 51.037 26.6724L51.3447 27.002C51.1298 27.3535 50.9174 27.6172 50.7075 27.793C50.4975 27.9639 50.2216 28.0493 49.8798 28.0493C49.5576 28.0493 49.2914 27.9492 49.0815 27.749C48.8764 27.5439 48.7641 27.2803 48.7446 26.958C48.4321 27.2998 48.0805 27.5684 47.6899 27.7637C47.3041 27.9541 46.894 28.0493 46.4594 28.0493C46.1567 28.0493 45.8759 27.9956 45.6171 27.8882C45.3632 27.7759 45.1581 27.6099 45.0019 27.3901C44.8505 27.1704 44.7748 26.9067 44.7748 26.5991C44.7748 26.1353 44.9531 25.7495 45.3095 25.4419C45.666 25.1343 46.0761 24.8999 46.54 24.7388C47.0038 24.5776 47.5703 24.4165 48.2392 24.2554C48.2978 24.2456 48.4589 24.2065 48.7226 24.1382V23.4424ZM48.7226 24.5703C48.6494 24.5947 48.5566 24.624 48.4443 24.6582C48.0244 24.7949 47.6655 24.9268 47.3676 25.0537C47.0698 25.1758 46.8036 25.3418 46.5693 25.5518C46.3349 25.7617 46.2177 26.0083 46.2177 26.2915C46.2177 26.5796 46.2958 26.8066 46.4521 26.9727C46.6132 27.1387 46.8378 27.2217 47.1259 27.2217C47.414 27.2217 47.6923 27.1509 47.9609 27.0093C48.2294 26.8628 48.4833 26.6724 48.7226 26.438V24.5703Z" fill="#05220A"/>
</svg>
